#define ab_width 9
#define ab_height 9
static unsigned char ab_bits[] = {
   0x00, 0x00, 0xe4, 0x00, 0xaa, 0x00, 0xaa, 0x00, 0xea, 0x00, 0xae, 0x00,
   0xaa, 0x00, 0xea, 0x00, 0x00, 0x00 };
