#define columns_width 9
#define columns_height 9
static unsigned char columns_bits[] = {
   0x0f, 0x00, 0x09, 0x00, 0x3d, 0x00, 0x27, 0x00, 0xf4, 0x00, 0x9c, 0x00,
   0x90, 0x00, 0xf0, 0x00, 0x00, 0x00 };
