#define tn_width 10
#define tn_height 10
static unsigned char tn_bits[] = {
   0xff, 0x03, 0x01, 0x02, 0x01, 0x02, 0x01, 0x02, 0x01, 0x02, 0x1f, 0x02,
   0x15, 0x02, 0x15, 0x02, 0x15, 0x02, 0xff, 0x03 };
