#define timeline_head_empty_width 8
#define timeline_head_empty_height 8
static unsigned char timeline_head_empty_bits[] = {
   0x00, 0xff, 0x01, 0x01, 0x01, 0x01, 0xff, 0x00 };
