#define timeline_foot_empty_width 8
#define timeline_foot_empty_height 8
static unsigned char timeline_foot_empty_bits[] = {
   0x00, 0xff, 0x80, 0x80, 0x80, 0x80, 0xff, 0x00 };
