#define weather_unknown_width 9
#define weather_unknown_height 9
static unsigned char weather_unknown_bits[] = {
   0x38, 0x00, 0x44, 0x00, 0x44, 0x00, 0x40, 0x00, 0x60, 0x00, 0x10, 0x00,
   0x10, 0x00, 0x00, 0x00, 0x10, 0x00 };
