#define weather_sun_width 9
#define weather_sun_height 9
static unsigned char weather_sun_bits[] = {
   0x11, 0x01, 0x82, 0x00, 0x38, 0x00, 0x7c, 0x00, 0x7d, 0x01, 0x7c, 0x00,
   0x38, 0x00, 0x82, 0x00, 0x11, 0x01 };
