#define weather_mist_width 9
#define weather_mist_height 9
static unsigned char weather_mist_bits[] = {
   0x00, 0x00, 0x00, 0x00, 0x00, 0x00, 0xaa, 0x00, 0x55, 0x01, 0x00, 0x00,
   0xaa, 0x00, 0x55, 0x01, 0x00, 0x00 };
