#define weather_snow_width 9
#define weather_snow_height 9
static unsigned char weather_snow_bits[] = {
   0x3c, 0x00, 0xe2, 0x01, 0x01, 0x01, 0x83, 0x01, 0x83, 0x01, 0xfe, 0x00,
   0x00, 0x00, 0x11, 0x01, 0x44, 0x00 };
