#define weather_cloud_width 9
#define weather_cloud_height 9
static unsigned char weather_cloud_bits[] = {
   0x00, 0x00, 0x3c, 0x00, 0xe2, 0x01, 0x01, 0x01, 0x01, 0x01, 0x83, 0x01,
   0xfe, 0x00, 0x78, 0x00, 0x00, 0x00 };
