#define weather_rain_width 9
#define weather_rain_height 9
static unsigned char weather_rain_bits[] = {
   0x00, 0x00, 0x3c, 0x00, 0xe2, 0x01, 0x01, 0x01, 0x01, 0x01, 0x83, 0x01,
   0xfe, 0x00, 0x44, 0x00, 0x22, 0x00 };
