#define weather_storm_width 9
#define weather_storm_height 9
static unsigned char weather_storm_bits[] = {
   0xff, 0x01, 0x10, 0x00, 0x08, 0x00, 0x0c, 0x00, 0x12, 0x00, 0x30, 0x00,
   0x4c, 0x00, 0x82, 0x00, 0x00, 0x00 };
