#define invader2_width 13
#define invader2_height 8
static unsigned char invader2_bits[] = {
   0x60, 0x00, 0xf8, 0x01, 0xfc, 0x03, 0x6c, 0x03, 0xfc, 0x03, 0x90, 0x00,
   0x68, 0x01, 0x04, 0x02 };
