#define invader6_width 13
#define invader6_height 8
static unsigned char invader6_bits[] = {
   0x60, 0x00, 0xf0, 0x00, 0xf8, 0x01, 0x6c, 0x03, 0xfc, 0x03, 0x68, 0x01,
   0x04, 0x02, 0x08, 0x01 };
