#define ruby_width 9
#define ruby_height 9
static unsigned char ruby_bits[] = {
   0xe0, 0x01, 0xb0, 0x01, 0x58, 0x01, 0x2c, 0x01, 0x16, 0x01, 0x0b, 0x01,
   0x45, 0x01, 0x23, 0x01, 0xff, 0x01 };
